<svg id="e32pYJqnGBC1" xmlns="http://www.w3.org/2000/svg" xmlns:xlink="http://www.w3.org/1999/xlink" viewBox="0 0 9.203467 5.158284" shape-rendering="geometricPrecision" text-rendering="geometricPrecision">
<style><![CDATA[
#e32pYJqnGBC3_tr {animation: e32pYJqnGBC3_tr__tr 1500ms linear infinite normal forwards}@keyframes e32pYJqnGBC3_tr__tr { 0% {transform: translate(2.882453px,4.537286px) rotate(0deg)} 20% {transform: translate(2.882453px,4.537286px) rotate(-1.676283deg)} 66.666667% {transform: translate(2.882453px,4.537286px) rotate(4.734248deg)} 100% {transform: translate(2.882453px,4.537286px) rotate(0.124198deg)}} #e32pYJqnGBC11_ts {animation: e32pYJqnGBC11_ts__ts 1500ms linear infinite normal forwards}@keyframes e32pYJqnGBC11_ts__ts { 0% {transform: translate(5.572624px,4.495369px) scale(1.037632,0.963733)} 33.333333% {transform: translate(5.572624px,4.495369px) scale(1.037632,0.963733)} 66.666667% {transform: translate(5.572624px,4.495369px) scale(1.037632,0.463743)} 100% {transform: translate(5.572624px,4.495369px) scale(1.037632,0.865116)}} #e32pYJqnGBC13_ts {animation: e32pYJqnGBC13_ts__ts 1500ms linear infinite normal forwards}@keyframes e32pYJqnGBC13_ts__ts { 0% {transform: translate(6.5582px,4.480359px) scale(1.037632,0.963733)} 33.333333% {transform: translate(6.5582px,4.480359px) scale(1.037632,0.963733)} 66.666667% {transform: translate(6.5582px,4.480359px) scale(1.037632,0.462034)} 100% {transform: translate(6.5582px,4.480359px) scale(1.037632,0.849528)}} #e32pYJqnGBC15_ts {animation: e32pYJqnGBC15_ts__ts 1500ms linear infinite normal forwards}@keyframes e32pYJqnGBC15_ts__ts { 0% {transform: translate(7.691669px,4.488039px) scale(1.037632,0.963733)} 33.333333% {transform: translate(7.691669px,4.488039px) scale(1.037632,0.963733)} 66.666667% {transform: translate(7.691669px,4.488039px) scale(1.037632,0.454703)} 100% {transform: translate(7.691669px,4.488039px) scale(1.037632,0.842196)}} #e32pYJqnGBC17_tr {animation: e32pYJqnGBC17_tr__tr 1500ms linear infinite normal forwards}@keyframes e32pYJqnGBC17_tr__tr { 0% {transform: translate(2.895161px,4.537286px) rotate(0deg)} 20% {transform: translate(2.895161px,4.537286px) rotate(1.502435deg)} 66.666667% {transform: translate(2.895161px,4.537286px) rotate(-4.205568deg)} 100% {transform: translate(2.895161px,4.537286px) rotate(-0.169044deg)}} #e32pYJqnGBC18_ts {animation: e32pYJqnGBC18_ts__ts 1500ms linear infinite normal forwards}@keyframes e32pYJqnGBC18_ts__ts { 0% {transform: translate(8.834845px,4.488039px) scale(1.037632,0.963733)} 33.333333% {transform: translate(8.834845px,4.488039px) scale(1.037632,0.963733)} 66.666667% {transform: translate(8.834845px,4.488039px) scale(1.037632,0.454703)} 100% {transform: translate(8.834845px,4.488039px) scale(1.037632,0.842197)}}
]]></style>
<g transform="translate(-.582309-1.930303)"><g id="e32pYJqnGBC3_tr" transform="translate(2.882453,4.537286) rotate(0)"><path d="M7.429579,3.769913l-.696105-.148819-.845671-1.032376-1.253718.011539c0,0-1.266146,1.92557-1.24979,1.83953.040386-.212457-.332207-.529772-.578208-.435248-.01037.00398,1.575089-1.974236,1.575089-1.974236l1.778065.009Z" transform="translate(-2.882446,-4.537283)" stroke-width="0.185272"/></g><g transform="matrix(-.005177-.366619-.366619 0.005177 52.301781 149.848846)"><g clip-path="url(#e32pYJqnGBC8)"><g><path d="M399.12603,129.99257c.47931-.46203.47931-1.21126,0-1.67331s-1.25643-.46212-1.73573,0-.47922,1.21128,0,1.67331c.4793.46213,1.25643.46213,1.73573,0Z" stroke-width="0.818204"/></g><clipPath id="e32pYJqnGBC8"><path d="M395.7536,126.4469h5v4.89226h-5Z"/></clipPath></g></g><path d="M2.469879,4.866159c-.115492-.244159-.131823-.436271-.00957-.677797.013073-.02584-1.794273.02534-1.794273.02534l.009577.67816c0,0,1.80958.0067,1.794268-.0257Z" stroke-width="0.229992"/><g id="e32pYJqnGBC11_ts" transform="translate(5.572624,4.495369) scale(1.037632,0.963733)"><text dx="0" dy="0" font-family="&quot;Helvetica Neue&quot;" font-size="1.71161" font-weight="300" transform="translate(-0.618674,0.641852)" stroke-width="0.334631"><tspan x="0" y="0" font-family="&quot;Helvetica Neue&quot;" font-size="1.71161" font-weight="400" font-style="normal" stroke-width="0.334631"><![CDATA[
C
]]></tspan></text></g><g id="e32pYJqnGBC13_ts" transform="translate(6.5582,4.480359) scale(1.037632,0.963733)"><text dx="0" dy="0" font-family="&quot;Helvetica Neue&quot;" font-size="1.78159" font-weight="300" transform="translate(-0.495502,0.668095)" stroke-width="0.348311"><tspan x="0" y="0" font-family="&quot;Helvetica Neue&quot;" font-size="1.78159" font-weight="400" font-style="normal" stroke-width="0.348311"><![CDATA[
L
]]></tspan></text></g><g id="e32pYJqnGBC15_ts" transform="translate(7.691669,4.488039) scale(1.037632,0.963733)"><text dx="0" dy="0" font-family="&quot;Helvetica Neue&quot;" font-size="1.78159" font-weight="300" transform="translate(-0.577158,0.668095)" stroke-width="0.348311"><tspan x="0" y="0" font-family="&quot;Helvetica Neue&quot;" font-size="1.78159" font-weight="400" font-style="normal" stroke-width="0.348311"><![CDATA[
A
]]></tspan></text></g><g id="e32pYJqnGBC17_tr" transform="translate(2.895161,4.537286) rotate(0)"><path d="M7.429579,5.248976l-.696105.14882-.845671,1.032375-1.253718-.011538c0,0-1.266146-1.92557-1.24979-1.83953.040386.212457-.332207.529771-.578208.435248-.01037-.00398,1.575089,1.974236,1.575089,1.974236l1.778065-.009Z" transform="translate(-2.895109,-4.537283)" stroke-width="0.185272"/></g><g id="e32pYJqnGBC18_ts" transform="translate(8.834845,4.488039) scale(1.037632,0.963733)"><text dx="0" dy="0" font-family="&quot;Helvetica Neue&quot;" font-size="1.78159" font-weight="300" transform="translate(-0.823982,0.668095)" stroke-width="0.348311"><tspan x="0" y="0" font-family="&quot;Helvetica Neue&quot;" font-size="1.78159" font-weight="400" font-style="normal" stroke-width="0.348311"><![CDATA[
W
]]></tspan></text></g></g></svg>
